<?xml version="1.0" encoding="UTF-8" standalone="no"?>
<svg
   xmlns:dc="http://purl.org/dc/elements/1.1/"
   xmlns:cc="http://creativecommons.org/ns#"
   xmlns:rdf="http://www.w3.org/1999/02/22-rdf-syntax-ns#"
   xmlns:svg="http://www.w3.org/2000/svg"
   xmlns="http://www.w3.org/2000/svg"
   xmlns:sodipodi="http://sodipodi.sourceforge.net/DTD/sodipodi-0.dtd"
   xmlns:inkscape="http://www.inkscape.org/namespaces/inkscape"
   width="1109.5"
   height="901.5"
   viewBox="-0.25 -0.25 1409.5 1201.5"
   version="1.1"
   id="svg6"
   sodipodi:docname="twitter.svg"
   inkscape:version="0.92.4 (5da689c313, 2019-01-14)">
  <metadata
     id="metadata12">
    <rdf:RDF>
      <cc:Work
         rdf:about="">
        <dc:format>image/svg+xml</dc:format>
        <dc:type
           rdf:resource="http://purl.org/dc/dcmitype/StillImage" />
        <dc:title />
      </cc:Work>
    </rdf:RDF>
  </metadata>
  <defs
     id="defs10" />
  <sodipodi:namedview
     pagecolor="#ffffff"
     bordercolor="#666666"
     borderopacity="1"
     objecttolerance="10"
     gridtolerance="10"
     guidetolerance="10"
     inkscape:pageopacity="0"
     inkscape:pageshadow="2"
     inkscape:window-width="1920"
     inkscape:window-height="1017"
     id="namedview8"
     showgrid="false"
     width="6"
     fit-margin-top="0"
     fit-margin-left="0"
     fit-margin-right="0"
     fit-margin-bottom="0"
     inkscape:zoom="0.25597116"
     inkscape:cx="554.75"
     inkscape:cy="450.75"
     inkscape:window-x="-8"
     inkscape:window-y="-8"
     inkscape:window-maximized="1"
     inkscape:current-layer="svg6" />
  <path
     d="m 898.94903,146.0021 v -0.2 h 52 l 19,3.8 c 12.667,2.467 24.167,5.7 34.49997,9.7 10.334,4 20.334,8.667 30,14 9.667,5.333 18.434,10.767 26.301,16.3 7.8,5.46699 14.8,11.26699 21,17.39999 6.132,6.2 15.699,7.8 28.699,4.8 13,-3 27,-7.167 42,-12.5 15,-5.333 29.834,-11.33299 44.5,-17.99999 14.667,-6.667 23.601,-10.9 26.801,-12.7 3.133,-1.866 4.8,-2.866 5,-3 l 0.199,-0.3 1,-0.5 1,-0.5 1,-0.5 1,-0.5 0.2,-0.3 0.3,-0.2 0.301,-0.2 0.199,-0.3 1,-0.3 1,-0.2 -0.199,1.5 -0.301,1.5 -0.5,1.5 -0.5,1.5 -0.5,1 -0.5,1 -0.5,1.5 c -0.333,1 -0.666,2.333 -1,4 -0.333,1.667 -3.5,8.333 -9.5,19.99999 -6,11.667 -13.5,23.5 -22.5,35.5 -9,12 -17.066,21.066 -24.199,27.2 -7.2,6.2 -11.967,10.533 -14.301,13 -2.333,2.533 -5.166,4.866 -8.5,7 l -5,3.3 -1,0.5 -1,0.5 -0.199,0.3 -0.301,0.2 -0.3,0.2 -0.2,0.3 -1,0.5 -1,0.5 -0.199,0.3 -0.301,0.2 -0.3,0.2 -0.2,0.3 -0.199,0.3 -0.301,0.2 -0.3,0.2 -0.2,0.3 h 5 l 28,-6 c 18.667,-4 36.5,-8.833 53.5,-14.5 l 27,-9 3,-1 1.5,-0.5 1,-0.5 1,-0.5 1,-0.5 1,-0.5 2,-0.3 2,-0.2 v 2 l -0.5,0.2 -0.5,0.3 -0.199,0.3 -0.301,0.2 -0.3,0.2 -0.2,0.3 -0.199,0.3 -0.301,0.2 -0.3,0.2 -0.2,0.3 -0.199,0.3 -0.301,0.2 -0.5,1 -0.5,1 -0.3,0.2 c -0.133,0.2 -4.366,5.866 -12.7,17 -8.333,11.2 -12.833,16.866 -13.5,17 -0.666,0.2 -1.6,1.2 -2.8,3 -1.133,1.866 -8.2,9.3 -21.2,22.3 -13,13 -25.732,24.566 -38.199,34.7 -12.533,10.2 -18.867,22.733 -19,37.6 -0.2,14.8 -0.967,31.534 -2.301,50.2 -1.333,18.667 -3.833,38.833 -7.5,60.5 -3.666,21.667 -9.333,46.167 -17,73.5 -7.666,27.333 -17,54 -28,80 -11,26 -22.5,49.333 -34.5,70 -12,20.667 -23,38.167 -33,52.5 -10,14.333 -20.166,27.833 -30.5,40.5 -10.33297,12.667 -23.39897,26.934 -39.19897,42.8 -15.867,15.8 -24.533,24.467 -26,26 -1.533,1.467 -8.066,6.934 -19.601,16.4 -11.466,9.533 -23.8,19.066 -37,28.6 -13.133,9.467 -25.2,17.367 -36.2,23.7 -11,6.333 -24.266,13.566 -39.8,21.7 -15.466,8.2 -32.2,15.8 -50.2,22.80001 -18,7 -37,13.5 -57,19.5 -20,6 -39.333,10.667 -58,14 -18.666,3.333 -39.833,6.167 -63.5,8.5 l -35.5,3.5 v 0.5 h -65 v -0.5 l -8.5,-0.5 c -5.666,-0.333 -10.333,-0.667 -14,-1 -3.666,-0.333 -17.5,-2.167 -41.5,-5.5 -24,-3.333 -42.833,-6.667 -56.5,-10 -13.666,-3.333 -34,-9.667 -61,-19 -27,-9.333 -50.1,-18.76701 -69.3,-28.30001 -19.13301,-9.467 -31.13301,-15.467 -36.00001,-18 -4.8,-2.467 -10.2,-5.533 -16.2,-9.2 l -9,-5.5 -0.199,-0.3 -0.301,-0.2 -0.3,-0.2 -0.2,-0.3 -1,-0.5 -1,-0.5 -0.199,-0.3 -0.301,-0.2 -0.3,-0.2 -0.2,-0.3 -0.199,-0.3 -0.301,-0.2 h -0.5 v -2 l 1,0.2 1,0.3 4.5,0.5 c 3,0.333 11.167,0.833 24.5,1.5 13.334,0.667 27.50001,0.667 42.50001,0 15,-0.667 30.334,-2.167 46,-4.5 15.667,-2.333 34.167,-6.333 55.5,-12 21.334,-5.667 40.934,-12.4 58.801,-20.2 17.8,-7.866 30.466,-13.733 38,-17.6 7.466,-3.8 18.866,-10.867 34.199,-21.2 l 23,-15.5 0.2,-0.3 0.3,-0.2 0.301,-0.2 0.199,-0.3 0.2,-0.3 0.3,-0.2 0.301,-0.2 0.199,-0.3 1,-0.3 1,-0.2 0.2,-1 0.3,-1 0.301,-0.2 0.199,-0.3 -8,-0.5 c -5.333,-0.333 -10.5,-0.667 -15.5,-1 -5,-0.333 -12.833,-1.833 -23.5,-4.5 -10.666,-2.667 -22.166,-6.667 -34.5,-12 -12.333,-5.333 -24.333,-11.667 -36,-19 -11.666,-7.333 -20.1,-13.434 -25.3,-18.3 -5.133,-4.801 -11.8,-11.6 -20,-20.4 -8.133,-8.866 -15.2,-17.967 -21.2,-27.3 -6,-9.333 -11.733,-20.101 -17.199,-32.3 l -8.301,-18.2 -0.5,-1.5 -0.5,-1.5 -0.3,-1 -0.2,-1 1.5,0.2 1.5,0.3 11,1.5 c 7.334,1 18.834,1.333 34.5,1 15.667,-0.333 26.5,-1 32.5,-2 6,-1 9.667,-1.667 11,-2 l 2,-0.5 2.5,-0.5 2.5,-0.5 0.2,-0.3 0.3,-0.2 0.301,-0.2 0.199,-0.3 -2,-0.5 -2,-0.5 -2,-0.5 -2,-0.5 -2,-0.5 c -1.333,-0.333 -3.666,-1 -7,-2 -3.333,-1 -12.333,-4.667 -27,-11 -14.666,-6.333 -26.333,-12.5 -35,-18.5 a 241.7,241.7 0 0 1 -24.8,-19.7 c -7.8,-7.2 -16.366,-16.467 -25.7,-27.8 -9.333,-11.333 -17.666,-24.5 -25,-39.5 -7.333,-15 -12.83301,-29.333 -16.50001,-43 a 232.143,232.143 0 0 1 -7.199,-41.5 l -1.801,-21 1,0.2 1,0.3 1,0.5 1,0.5 1,0.5 1,0.5 15.50001,7 c 10.334,4.667 23.167,8.667 38.5,12 15.334,3.333 24.5,5.167 27.5,5.5 l 4.5,0.5 h 9 l -0.199,-0.3 -0.301,-0.2 -0.3,-0.2 -0.2,-0.3 -0.199,-0.3 -0.301,-0.2 -0.3,-0.2 -0.2,-0.3 -1,-0.5 -1,-0.5 -0.199,-0.3 -0.301,-0.2 -0.3,-0.2 -0.2,-0.3 -1,-0.5 -1,-0.5 -0.199,-0.3 c -0.2,-0.134 -3.067,-2.267 -8.601,-6.4 -5.467,-4.2 -11.2,-9.633 -17.2,-16.3 -6,-6.667 -12,-13.667 -18,-21 a 162.158,162.158 0 0 1 -16,-23.5 c -4.666,-8.333 -9.6,-18.934 -14.8,-31.8 -5.133,-12.8 -9.03301,-25.7 -11.70001,-38.7 -2.666,-13 -4.166,-25.833 -4.5,-38.5 -0.333,-12.667 0,-23.5 1,-32.5 1,-9 3,-19.167 6,-30.5 3,-11.333 7.33401,-23.333 13.00001,-36 l 8.5,-18.99999 0.5,-1.5 0.5,-1.5 0.301,-0.2 0.199,-0.3 0.2,-0.3 0.3,-0.2 0.301,0.2 0.199,0.3 0.2,0.3 0.3,0.2 0.301,0.2 0.199,0.3 0.2,0.3 0.3,0.2 0.5,1 0.5,1 0.301,0.2 0.199,0.3 13.5,14.99999 c 9,10 19.667,21.167 32,33.5 12.334,12.333 19.167,18.733 20.5,19.2 1.334,0.533 3,2.066 5,4.6 2,2.467 8.667,8.367 20,17.7 11.334,9.333 26.167,20.167 44.5,32.5 18.334,12.333 38.667,24.5 61,36.5 22.334,12 46.334,22.833 72,32.5 25.667,9.667 43.667,16 54,19 10.334,3 28,6.833 53,11.5 25,4.667 43.834,7.667 56.5,9 12.667,1.333 21.334,2.1 26,2.3 l 7,0.2 -0.199,-1.5 -0.301,-1.5 -2,-12.5 c -1.333,-8.333 -2,-20 -2,-35 0,-15 1.167,-28.833 3.5,-41.5 2.334,-12.667 5.834,-25.5 10.5,-38.5 4.667,-13 9.234,-23.434 13.7,-31.3 4.534,-7.8 10.467,-16.7 17.8,-26.7 7.334,-10 16.834,-20.333 28.5,-31 11.667,-10.66699 25,-20.16699 40,-28.49999 15,-8.333 28.834,-14.667 41.5,-19 12.667,-4.333 23.334,-7.167 32,-8.5 8.667,-1.333 13,-2.1 13,-2.3 z"
     id="path2"
     inkscape:connector-curvature="0"
     style="fill:#5da8dc;stroke:#5da8dc;stroke-width:0.5"
     inkscape:transform-center-x="65.100668"
     inkscape:transform-center-y="-56.420579" />
  <path
     d="M 157.94902,544.80209 V 145.8021 h 741.00001 v 0.2 c 0,0.2 -4.333,0.966 -13,2.3 -8.666,1.333 -19.333,4.167 -32,8.5 -12.666,4.333 -26.5,10.667 -41.5,19 -15,8.333 -28.333,17.833 -40,28.49999 -11.666,10.667 -21.166,21 -28.5,31 -7.333,10 -13.266,18.9 -17.8,26.7 -4.466,7.866 -9.033,18.3 -13.7,31.3 -4.666,13 -8.166,25.833 -10.5,38.5 -2.333,12.667 -3.5,26.5 -3.5,41.5 0,15 0.667,26.667 2,35 l 2,12.5 0.301,1.5 0.199,1.5 -7,-0.2 c -4.666,-0.2 -13.333,-0.966 -26,-2.3 -12.666,-1.333 -31.5,-4.333 -56.5,-9 -25,-4.667 -42.666,-8.5 -53,-11.5 -10.333,-3 -28.333,-9.333 -54,-19 -25.666,-9.667 -49.666,-20.5 -72,-32.5 -22.333,-12 -42.666,-24.167 -61,-36.5 -18.333,-12.333 -33.166,-23.167 -44.5,-32.5 -11.333,-9.333 -18,-15.233 -20,-17.7 -2,-2.533 -3.666,-4.066 -5,-4.6 -1.333,-0.467 -8.166,-6.867 -20.5,-19.2 -12.333,-12.333 -23,-23.5 -32,-33.5 l -13.5,-14.99999 -0.199,-0.3 -0.301,-0.2 -0.5,-1 -0.5,-1 -0.3,-0.2 -0.2,-0.3 -0.199,-0.3 -0.301,-0.2 -0.3,-0.2 -0.2,-0.3 -0.199,-0.3 -0.301,-0.2 -0.3,0.2 -0.2,0.3 -0.199,0.3 -0.301,0.2 -0.5,1.5 -0.5,1.5 -8.5,18.99999 c -5.666,12.667 -10.00001,24.667 -13.00001,36 -3,11.333 -5,21.5 -6,30.5 -1,9 -1.333,19.833 -1,32.5 0.334,12.667 1.834,25.5 4.5,38.5 2.667,13 6.56701,25.9 11.70001,38.7 5.2,12.866 10.134,23.466 14.8,31.8 4.667,8.333 10,16.167 16,23.5 6,7.333 12,14.333 18,21 6,6.667 11.733,12.1 17.2,16.3 5.533,4.134 8.4,6.267 8.601,6.4 l 0.199,0.3 1,0.5 1,0.5 0.2,0.3 0.3,0.2 0.301,0.2 0.199,0.3 1,0.5 1,0.5 0.2,0.3 0.3,0.2 0.301,0.2 0.199,0.3 0.2,0.3 0.3,0.2 0.301,0.2 0.199,0.3 h -9 l -4.5,-0.5 c -3,-0.333 -12.166,-2.167 -27.5,-5.5 -15.333,-3.333 -28.166,-7.333 -38.5,-12 l -15.50001,-7 -1,-0.5 -1,-0.5 -1,-0.5 -1,-0.5 -1,-0.3 -1,-0.2 1.801,21 c 1.133,14 3.533,27.833 7.199,41.5 3.667,13.667 9.16701,28 16.50001,43 7.334,15 15.667,28.167 25,39.5 9.334,11.333 17.9,20.6 25.7,27.8 a 241.7,241.7 0 0 0 24.8,19.7 c 8.667,6 20.334,12.167 35,18.5 14.667,6.333 23.667,10 27,11 3.334,1 5.667,1.667 7,2 l 2,0.5 2,0.5 2,0.5 2,0.5 2,0.5 -0.199,0.3 -0.301,0.2 -0.3,0.2 -0.2,0.3 -2.5,0.5 -2.5,0.5 -2,0.5 c -1.333,0.333 -5,1 -11,2 -6,1 -16.833,1.667 -32.5,2 -15.666,0.333 -27.166,0 -34.5,-1 l -11,-1.5 -1.5,-0.3 -1.5,-0.2 0.2,1 0.3,1 0.5,1.5 0.5,1.5 8.301,18.2 c 5.465,12.199 11.199,22.967 17.199,32.3 6,9.333 13.067,18.434 21.2,27.3 8.2,8.801 14.867,15.6 20,20.4 5.2,4.866 13.634,10.967 25.3,18.3 11.667,7.333 23.667,13.667 36,19 12.334,5.333 23.834,9.333 34.5,12 10.667,2.667 18.5,4.167 23.5,4.5 5,0.333 10.167,0.667 15.5,1 l 8,0.5 -0.199,0.3 -0.301,0.2 -0.3,1 -0.2,1 -1,0.2 -1,0.3 -0.199,0.3 -0.301,0.2 -0.3,0.2 -0.2,0.3 -0.199,0.3 -0.301,0.2 -0.3,0.2 -0.2,0.3 -23,15.5 c -15.333,10.333 -26.733,17.4 -34.199,21.2 -7.534,3.866 -20.2,9.733 -38,17.6 -17.867,7.8 -37.467,14.533 -58.801,20.2 -21.333,5.667 -39.833,9.667 -55.5,12 -15.666,2.333 -31,3.833 -46,4.5 -15,0.667 -29.16601,0.667 -42.50001,0 -13.333,-0.667 -21.5,-1.167 -24.5,-1.5 l -4.5,-0.5 -1,-0.3 -1,-0.2 z m 1107.80098,-289.2 0.199,-0.3 0.5,-0.3 0.5,-0.2 V 1046.8021 H 539.94903 v -0.5 l 35.5,-3.5 c 23.667,-2.333 44.834,-5.167 63.5,-8.5 18.667,-3.333 38,-8 58,-14 20,-6 39,-12.5 57,-19.5 18,-7.00001 34.734,-14.60001 50.2,-22.80001 15.534,-8.134 28.8,-15.367 39.8,-21.7 11,-6.333 23.067,-14.233 36.2,-23.7 13.2,-9.533 25.534,-19.066 37,-28.6 11.534,-9.467 18.067,-14.934 19.601,-16.4 1.467,-1.533 10.133,-10.2 26,-26 15.8,-15.866 28.866,-30.133 39.19897,-42.8 10.334,-12.667 20.5,-26.167 30.5,-40.5 10,-14.333 21,-31.833 33,-52.5 12,-20.667 23.5,-44 34.5,-70 11,-26 20.334,-52.667 28,-80 7.667,-27.333 13.334,-51.833 17,-73.5 3.667,-21.667 6.167,-41.833 7.5,-60.5 1.334,-18.667 2.101,-35.4 2.301,-50.2 0.133,-14.866 6.467,-27.4 19,-37.6 12.467,-10.134 25.199,-21.7 38.199,-34.7 13,-13 20.067,-20.434 21.2,-22.3 1.2,-1.8 2.134,-2.8 2.8,-3 0.667,-0.134 5.167,-5.8 13.5,-17 8.334,-11.134 12.567,-16.8 12.7,-17 l 0.3,-0.2 0.5,-1 0.5,-1 0.301,-0.2 0.199,-0.3 0.2,-0.3 0.3,-0.2 0.301,-0.2 0.199,-0.3 0.2,-0.3 0.3,-0.2 z M 969.94903,149.6021 l -19,-3.8 H 1266.949 v 106.99999 l -2,0.2 -2,0.3 -1,0.5 -1,0.5 -1,0.5 -1,0.5 -1.5,0.5 -3,1 -27,9 c -17,5.667 -34.833,10.5 -53.5,14.5 l -28,6 h -5 l 0.2,-0.3 0.3,-0.2 0.301,-0.2 0.199,-0.3 0.2,-0.3 0.3,-0.2 0.301,-0.2 0.199,-0.3 1,-0.5 1,-0.5 0.2,-0.3 0.3,-0.2 0.301,-0.2 0.199,-0.3 1,-0.5 1,-0.5 5,-3.3 c 3.334,-2.134 6.167,-4.467 8.5,-7 2.334,-2.467 7.101,-6.8 14.301,-13 7.132,-6.134 15.199,-15.2 24.199,-27.2 9,-12 16.5,-23.833 22.5,-35.5 6,-11.66699 9.167,-18.33299 9.5,-19.99999 0.334,-1.667 0.667,-3 1,-4 l 0.5,-1.5 0.5,-1 0.5,-1 0.5,-1.5 0.5,-1.5 0.301,-1.5 0.199,-1.5 -1,0.2 -1,0.3 -0.199,0.3 -0.301,0.2 -0.3,0.2 -0.2,0.3 -1,0.5 -1,0.5 -1,0.5 -1,0.5 -0.199,0.3 c -0.2,0.134 -1.867,1.134 -5,3 -3.2,1.8 -12.134,6.034 -26.801,12.7 -14.666,6.667 -29.5,12.66699 -44.5,17.99999 -15,5.333 -29,9.5 -42,12.5 -13,3 -22.566,1.4 -28.699,-4.8 -6.2,-6.134 -13.2,-11.934 -21,-17.39999 -7.867,-5.533 -16.634,-10.966 -26.301,-16.3 a 245.399,245.399 0 0 0 -30,-14 c -10.33297,-4 -21.83297,-7.233 -34.49997,-9.7 z M 157.94902,996.30209 v -50.5 h 0.5 l 0.301,0.2 0.199,0.3 0.2,0.3 0.3,0.2 0.301,0.2 0.199,0.3 1,0.5 1,0.5 0.2,0.3 0.3,0.2 0.301,0.2 0.199,0.3 9,5.5 c 6,3.667 11.4,6.733 16.2,9.2 4.867,2.533 16.867,8.533 36.00001,18 19.2,9.533 42.3,18.96701 69.3,28.30001 27,9.333 47.334,15.667 61,19 13.667,3.333 32.5,6.667 56.5,10 24,3.333 37.834,5.167 41.5,5.5 3.667,0.333 8.334,0.667 14,1 l 8.5,0.5 v 0.5 H 157.94902 Z"
     id="path4"
     inkscape:connector-curvature="0"
     style="fill:#ffffff;stroke:#ffffff;stroke-width:0.5"
     inkscape:transform-center-x="65.100668"
     inkscape:transform-center-y="-56.420579" />
</svg>
